<?xml version="1.0" encoding="utf-8"?>
<svg viewBox="0 0 130 80" xmlns="http://www.w3.org/2000/svg">
  <path style="fill: rgb(26, 26, 26);" d="M 86.912 68.331 L 81.012 54.244 C 81.012 54.244 84.718 48.936 85.638 45.888 C 86.597 42.706 86.549 39.27 86.435 35.947 C 86.37 34.077 85.742 30.462 85.834 30.393 C 88.246 28.603 91.251 28.561 92.859 31.005 C 96.304 36.243 95.017 45.354 93.854 51.882 C 92.735 58.161 86.912 68.331 86.912 68.331 Z"/>
  <path style="fill: rgb(26, 26, 26);" d="M 34.713 69.902 L 48.866 55.453 C 48.866 55.453 50.3 45.669 52.079 40.568 C 52.658 38.905 54.306 34.973 54.259 34.841 C 53.561 32.898 52.149 30.894 50.192 30.818 C 47.014 30.694 45.072 34.076 43.317 37.533 C 40.37 43.331 39.148 49.246 37.59 55.381 C 36.376 60.154 34.713 69.902 34.713 69.902 Z"/>
  <path style="fill: rgb(26, 26, 26);" d="M 35.129 7.828 C 35.07 7.726 43.647 14.421 43.647 14.421 L 39.384 17.883 C 39.384 17.883 37.221 11.43 35.129 7.828 Z"/>
  <path style="fill: rgb(26, 26, 26);" d="M 116.408 49.626 L 118.116 49.032 C 118.116 49.032 129.096 52.495 128.44 52.782 L 115.592 54.883 L 116.408 49.626 Z"/>
  <path style="fill: rgb(216, 216, 216); stroke: rgb(0, 0, 0);" d="M 122.906 42.342"/>
  <path style="fill: rgb(26, 26, 26);" d="M 3.302 21.366 C 3.302 21.366 5.605 20.217 7.436 20.274 C 9.33 20.332 11.939 21.291 11.939 21.291 C 11.939 21.291 10.215 18.286 7.392 18.407 C 4.123 18.547 3.302 21.366 3.302 21.366 Z"/>
  <path style="fill: rgb(26, 26, 26);" d="M 75.029 12.132 L 79.649 16.517 L 78.426 17.586 L 75.029 12.132 Z"/>
  <path style="fill: rgb(216, 216, 216); stroke: rgb(0, 0, 0);"/>
  <path style="stroke: rgb(0, 0, 0); fill: rgb(149, 149, 149); stroke-opacity: 0.6;" d="M 1.034 15.669 L 25.811 1.198 C 25.811 1.198 29.643 2.763 33.141 6.006 C 36.527 9.146 39.173 18.48 39.173 18.48 C 39.173 18.48 47.16 11.277 51.972 9.066 C 54.871 7.734 58.11 6.796 61.3 6.908 C 65.319 7.049 69.561 8.108 72.834 10.445 C 75.403 12.279 78.403 18.107 78.403 18.107 C 78.403 18.107 87.192 9.353 93.518 7.67 C 99.513 6.074 99.498 5.926 104.784 7.044 C 110.356 8.223 112.543 10.707 114.955 14.041 C 117.366 17.372 117.989 21.792 118.419 25.882 C 119.022 31.631 117.111 43.173 117.111 43.173 L 115.267 55.274 L 127.88 53.291 L 126.442 61.33 C 126.442 61.33 108.098 70.054 97.759 79.463 C 97.51 79.689 87.558 68.264 87.558 68.264 C 87.558 68.264 93.21 57.647 94.113 51.635 C 94.693 47.775 95.694 42.288 95.382 39.312 C 95.141 37.019 94.669 29.464 90.074 28.836 C 85.25 28.177 81.736 35.217 81.736 35.217 C 81.736 35.217 78.39 42.183 77.202 45.848 C 75.625 50.708 73.796 60.792 73.796 60.792 L 52.92 58.458 L 54.939 43.31 C 54.939 43.31 56.607 35.168 52.654 31.805 C 48.732 28.469 44.87 31.872 41.065 42.014 C 37.755 50.838 34.283 69.461 34.283 69.461 L 14.671 64.655 C 14.671 64.655 17.114 52.309 16.207 36.588 C 15.872 30.782 13.954 19.47 8.603 18.313 C 4.743 17.478 3.158 20.429 3.158 20.429 L 1.034 15.669 Z"/>
  <path style="fill: rgb(69, 69, 69);" d="M 2.869 16.364 L 26.026 3.332 C 26.026 3.332 29.376 4.296 32.295 7.603 C 35.986 11.785 38.106 22.107 38.106 22.107 C 38.106 22.107 46.887 13.252 51.397 11.241 C 54.116 10.029 57.731 8.33 60.721 8.431 C 64.488 8.56 69.132 9.195 71.95 11.645 C 74.671 14.011 77.979 21.402 77.979 21.402 C 77.979 21.402 87.282 12.163 92.021 10.211 C 97.488 7.959 100.249 7.606 103.906 8.616 C 108.413 9.86 111.115 11.452 113.377 14.485 C 115.636 17.516 116.533 20.964 116.934 24.685 C 117.5 29.916 116.141 40.524 116.141 40.524 L 113.498 57.049 L 126.312 55.04 L 125.276 60.238 C 125.276 60.238 107.663 68.469 97.973 77.03 C 97.739 77.236 89.664 68.155 89.664 68.155 C 89.664 68.155 95.429 55.165 96.157 49.679 C 96.638 46.059 97.18 40.157 96.887 37.45 C 96.661 35.362 95.904 27.973 90.813 26.978 C 85.066 25.854 80.34 34.137 80.34 34.137 C 80.34 34.137 77.238 41.092 76.123 44.427 C 74.645 48.847 72.726 59.071 72.726 59.071 L 54.713 56.718 L 56.404 42.761 C 56.404 42.761 58.062 34.427 53.648 30.563 C 48.555 26.104 43.151 31.488 39.585 40.716 C 36.482 48.744 33.212 67.402 33.212 67.402 L 16.29 63.322 C 16.29 63.322 18.656 50.235 17.806 35.933 C 17.49 30.649 14.915 17.846 9.9 16.794 C 6.282 16.035 3.77 17.808 3.77 17.808 L 2.869 16.364 Z"/>
  <text style="fill: rgb(227, 227, 227); font-family: Arial, Helvetica, sans-serif; font-size: 16px; white-space: pre;" x="21.814" y="27.884">m  -  m  -  m</text>
</svg>