<?xml version="1.0" encoding="UTF-8"?>
<!DOCTYPE svg PUBLIC "-//W3C//DTD SVG 1.1//EN" "http://www.w3.org/Graphics/SVG/1.1/DTD/svg11.dtd">
<svg xmlns="http://www.w3.org/2000/svg" xmlns:xlink="http://www.w3.org/1999/xlink" version="1.1" width="1123px" height="844px" viewBox="-0.5 -0.5 1123 844" style="background-color: rgb(255, 255, 255);"><defs/><g><a xlink:href="https://github.com/m-m-m/base"><rect x="520" y="0" width="120" height="40" rx="6" ry="6" fill="#000000" stroke="none" transform="translate(2,3)" opacity="0.25"/><rect x="520" y="0" width="120" height="40" rx="6" ry="6" fill="#10739e" stroke="none" pointer-events="all"/><g fill="#FFFFFF" font-family="Helvetica" font-weight="bold" text-anchor="middle" font-size="14px"><text x="579.5" y="25.5">base</text></g></a><a xlink:href="https://github.com/m-m-m/scanner"><rect x="760" y="80" width="120" height="40" rx="6" ry="6" fill="#000000" stroke="none" transform="translate(2,3)" opacity="0.25"/><rect x="760" y="80" width="120" height="40" rx="6" ry="6" fill="#10739e" stroke="none" pointer-events="all"/><g fill="#FFFFFF" font-family="Helvetica" font-weight="bold" text-anchor="middle" font-size="14px"><text x="819.5" y="105.5">scanner</text></g></a><a xlink:href="https://github.com/m-m-m/nls"><rect x="520" y="160" width="120" height="40" rx="6" ry="6" fill="#000000" stroke="none" transform="translate(2,3)" opacity="0.25"/><rect x="520" y="160" width="120" height="40" rx="6" ry="6" fill="#10739e" stroke="none" pointer-events="all"/><g fill="#FFFFFF" font-family="Helvetica" font-weight="bold" text-anchor="middle" font-size="14px"><text x="579.5" y="185.5">nls</text></g></a><a xlink:href="https://github.com/m-m-m/cli"><rect x="520" y="80" width="120" height="40" rx="6" ry="6" fill="#000000" stroke="none" transform="translate(2,3)" opacity="0.25"/><rect x="520" y="80" width="120" height="40" rx="6" ry="6" fill="#10739e" stroke="none" pointer-events="all"/><g fill="#FFFFFF" font-family="Helvetica" font-weight="bold" text-anchor="middle" font-size="14px"><text x="579.5" y="105.5">cli</text></g></a><a xlink:href="https://github.com/m-m-m/event"><rect x="160" y="80" width="120" height="40" rx="6" ry="6" fill="#000000" stroke="none" transform="translate(2,3)" opacity="0.25"/><rect x="160" y="80" width="120" height="40" rx="6" ry="6" fill="#10739e" stroke="none" pointer-events="all"/><g fill="#FFFFFF" font-family="Helvetica" font-weight="bold" text-anchor="middle" font-size="14px"><text x="219.5" y="105.5">event</text></g></a><path d="M 580 40 L 580 50 Q 580 60 590 60 L 810 60 Q 820 60 820 63.82 L 820 67.65" fill="none" stroke="#23445d" stroke-width="3" stroke-miterlimit="10" pointer-events="stroke"/><path d="M 820 76.65 L 815.5 67.65 L 824.5 67.65 Z" fill="#23445d" stroke="#23445d" stroke-width="3" stroke-miterlimit="10" pointer-events="all"/><path d="M 580 40 L 580 50 Q 580 60 580 63.82 L 580 67.65" fill="none" stroke="#23445d" stroke-width="3" stroke-miterlimit="10" pointer-events="stroke"/><path d="M 580 76.65 L 575.5 67.65 L 584.5 67.65 Z" fill="#23445d" stroke="#23445d" stroke-width="3" stroke-miterlimit="10" pointer-events="all"/><path d="M 820 120 L 820 130 Q 820 140 810 140 L 590 140 Q 580 140 580 143.82 L 580 147.65" fill="none" stroke="#23445d" stroke-width="3" stroke-miterlimit="10" pointer-events="stroke"/><path d="M 580 156.65 L 575.5 147.65 L 584.5 147.65 Z" fill="#23445d" stroke="#23445d" stroke-width="3" stroke-miterlimit="10" pointer-events="all"/><path d="M 520 20 L 230 20 Q 220 20 220 30 L 220 67.65" fill="none" stroke="#23445d" stroke-width="3" stroke-miterlimit="10" pointer-events="stroke"/><path d="M 220 76.65 L 215.5 67.65 L 224.5 67.65 Z" fill="#23445d" stroke="#23445d" stroke-width="3" stroke-miterlimit="10" pointer-events="all"/><a xlink:href="https://github.com/m-m-m/l10n"><rect x="1000" y="0" width="120" height="40" rx="6" ry="6" fill="#000000" stroke="none" transform="translate(2,3)" opacity="0.25"/><rect x="1000" y="0" width="120" height="40" rx="6" ry="6" fill="#10739e" stroke="none" pointer-events="all"/><g fill="#FFFFFF" font-family="Helvetica" font-weight="bold" text-anchor="middle" font-size="14px"><text x="1059.5" y="25.5">l10n</text></g></a><path d="M 580 120 L 580 130 Q 580 140 580 143.82 L 580 147.65" fill="none" stroke="#23445d" stroke-width="3" stroke-miterlimit="10" pointer-events="stroke"/><path d="M 580 156.65 L 575.5 147.65 L 584.5 147.65 Z" fill="#23445d" stroke="#23445d" stroke-width="3" stroke-miterlimit="10" pointer-events="all"/><path d="M 1060 40 L 1060 130 Q 1060 140 1050 140 L 590 140 Q 580 140 580 143.82 L 580 147.65" fill="none" stroke="#23445d" stroke-width="3" stroke-miterlimit="10" stroke-dasharray="9 9" pointer-events="stroke"/><path d="M 580 156.65 L 575.5 147.65 L 584.5 147.65 Z" fill="#23445d" stroke="#23445d" stroke-width="3" stroke-miterlimit="10" pointer-events="all"/><a xlink:href="https://github.com/m-m-m/value"><rect x="160" y="160" width="120" height="40" rx="6" ry="6" fill="#000000" stroke="none" transform="translate(2,3)" opacity="0.25"/><rect x="160" y="160" width="120" height="40" rx="6" ry="6" fill="#10739e" stroke="none" pointer-events="all"/><g fill="#FFFFFF" font-family="Helvetica" font-weight="bold" text-anchor="middle" font-size="14px"><text x="219.5" y="185.5">value</text></g></a><path d="M 220 120 L 220 130 Q 220 140 220 143.82 L 220 147.65" fill="none" stroke="#23445d" stroke-width="3" stroke-miterlimit="10" pointer-events="stroke"/><path d="M 220 156.65 L 215.5 147.65 L 224.5 147.65 Z" fill="#23445d" stroke="#23445d" stroke-width="3" stroke-miterlimit="10" pointer-events="all"/><a xlink:href="https://github.com/m-m-m/validation"><rect x="360" y="240" width="120" height="40" rx="6" ry="6" fill="#000000" stroke="none" transform="translate(2,3)" opacity="0.25"/><rect x="360" y="240" width="120" height="40" rx="6" ry="6" fill="#10739e" stroke="none" pointer-events="all"/><g fill="#FFFFFF" font-family="Helvetica" font-weight="bold" text-anchor="middle" font-size="14px"><text x="419.5" y="265.5">validation</text></g></a><path d="M 580 200 L 580 210 Q 580 220 570 220 L 430 220 Q 420 220 420 223.82 L 420 227.65" fill="none" stroke="#23445d" stroke-width="3" stroke-miterlimit="10" pointer-events="stroke"/><path d="M 420 236.65 L 415.5 227.65 L 424.5 227.65 Z" fill="#23445d" stroke="#23445d" stroke-width="3" stroke-miterlimit="10" pointer-events="all"/><path d="M 220 200 L 220 210 Q 220 220 230 220 L 410 220 Q 420 220 420 223.82 L 420 227.65" fill="none" stroke="#23445d" stroke-width="3" stroke-miterlimit="10" pointer-events="stroke"/><path d="M 420 236.65 L 415.5 227.65 L 424.5 227.65 Z" fill="#23445d" stroke="#23445d" stroke-width="3" stroke-miterlimit="10" pointer-events="all"/><a xlink:href="https://github.com/m-m-m/marshall"><rect x="760" y="240" width="120" height="40" rx="6" ry="6" fill="#000000" stroke="none" transform="translate(2,3)" opacity="0.25"/><rect x="760" y="240" width="120" height="40" rx="6" ry="6" fill="#10739e" stroke="none" pointer-events="all"/><g fill="#FFFFFF" font-family="Helvetica" font-weight="bold" text-anchor="middle" font-size="14px"><text x="819.5" y="265.5">marshall</text></g></a><path d="M 850 120 L 850 150 Q 850 160 840 160 L 830 160 Q 820 160 820 170 L 820 227.65" fill="none" stroke="#23445d" stroke-width="3" stroke-miterlimit="10" pointer-events="stroke"/><path d="M 820 236.65 L 815.5 227.65 L 824.5 227.65 Z" fill="#23445d" stroke="#23445d" stroke-width="3" stroke-miterlimit="10" pointer-events="all"/><a xlink:href="https://github.com/m-m-m/property"><rect x="640" y="320" width="120" height="40" rx="6" ry="6" fill="#000000" stroke="none" transform="translate(2,3)" opacity="0.25"/><rect x="640" y="320" width="120" height="40" rx="6" ry="6" fill="#10739e" stroke="none" pointer-events="all"/><g fill="#FFFFFF" font-family="Helvetica" font-weight="bold" text-anchor="middle" font-size="14px"><text x="699.5" y="345.5">property</text></g></a><path d="M 420 280 L 420 290 Q 420 300 430 300 L 690 300 Q 700 300 700 303.82 L 700 307.65" fill="none" stroke="#23445d" stroke-width="3" stroke-miterlimit="10" pointer-events="stroke"/><path d="M 700 316.65 L 695.5 307.65 L 704.5 307.65 Z" fill="#23445d" stroke="#23445d" stroke-width="3" stroke-miterlimit="10" pointer-events="all"/><path d="M 820 280 L 820 290 Q 820 300 810 300 L 710 300 Q 700 300 700 303.82 L 700 307.65" fill="none" stroke="#23445d" stroke-width="3" stroke-miterlimit="10" pointer-events="stroke"/><path d="M 700 316.65 L 695.5 307.65 L 704.5 307.65 Z" fill="#23445d" stroke="#23445d" stroke-width="3" stroke-miterlimit="10" pointer-events="all"/><a xlink:href="https://github.com/m-m-m/bean"><rect x="640" y="400" width="120" height="40" rx="6" ry="6" fill="#000000" stroke="none" transform="translate(2,3)" opacity="0.25"/><rect x="640" y="400" width="120" height="40" rx="6" ry="6" fill="#10739e" stroke="none" pointer-events="all"/><g fill="#FFFFFF" font-family="Helvetica" font-weight="bold" text-anchor="middle" font-size="14px"><text x="699.5" y="425.5">bean</text></g></a><a xlink:href="https://github.com/m-m-m/entity"><rect x="640" y="480" width="120" height="40" rx="6" ry="6" fill="#000000" stroke="none" transform="translate(2,3)" opacity="0.25"/><rect x="640" y="480" width="120" height="40" rx="6" ry="6" fill="#10739e" stroke="none" pointer-events="all"/><g fill="#FFFFFF" font-family="Helvetica" font-weight="bold" text-anchor="middle" font-size="14px"><text x="699.5" y="505.5">entity</text></g></a><path d="M 700 360 L 700 370 Q 700 380 700 383.82 L 700 387.65" fill="none" stroke="#23445d" stroke-width="3" stroke-miterlimit="10" pointer-events="stroke"/><path d="M 700 396.65 L 695.5 387.65 L 704.5 387.65 Z" fill="#23445d" stroke="#23445d" stroke-width="3" stroke-miterlimit="10" pointer-events="all"/><path d="M 700 440 L 700 450 Q 700 460 700 463.82 L 700 467.65" fill="none" stroke="#23445d" stroke-width="3" stroke-miterlimit="10" pointer-events="stroke"/><path d="M 700 476.65 L 695.5 467.65 L 704.5 467.65 Z" fill="#23445d" stroke="#23445d" stroke-width="3" stroke-miterlimit="10" pointer-events="all"/><a xlink:href="https://github.com/m-m-m/rpc"><rect x="520" y="560" width="120" height="40" rx="6" ry="6" fill="#000000" stroke="none" transform="translate(2,3)" opacity="0.25"/><rect x="520" y="560" width="120" height="40" rx="6" ry="6" fill="#10739e" stroke="none" pointer-events="all"/><g fill="#FFFFFF" font-family="Helvetica" font-weight="bold" text-anchor="middle" font-size="14px"><text x="579.5" y="585.5">rpc</text></g></a><path d="M 700 520 L 700 530 Q 700 540 690 540 L 590 540 Q 580 540 580 543.82 L 580 547.65" fill="none" stroke="#23445d" stroke-width="3" stroke-miterlimit="10" pointer-events="stroke"/><path d="M 580 556.65 L 575.5 547.65 L 584.5 547.65 Z" fill="#23445d" stroke="#23445d" stroke-width="3" stroke-miterlimit="10" pointer-events="all"/><a xlink:href="https://github.com/m-m-m/ui-api"><rect x="760" y="560" width="120" height="40" rx="6" ry="6" fill="#000000" stroke="none" transform="translate(2,3)" opacity="0.25"/><rect x="760" y="560" width="120" height="40" rx="6" ry="6" fill="#10739e" stroke="none" pointer-events="all"/><g fill="#FFFFFF" font-family="Helvetica" font-weight="bold" text-anchor="middle" font-size="14px"><text x="819.5" y="585.5">ui-api</text></g></a><path d="M 700 520 L 700 530 Q 700 540 710 540 L 810 540 Q 820 540 820 543.82 L 820 547.65" fill="none" stroke="#23445d" stroke-width="3" stroke-miterlimit="10" pointer-events="stroke"/><path d="M 820 556.65 L 815.5 547.65 L 824.5 547.65 Z" fill="#23445d" stroke="#23445d" stroke-width="3" stroke-miterlimit="10" pointer-events="all"/><a xlink:href="https://github.com/m-m-m/ui-spi"><rect x="760" y="640" width="120" height="40" rx="6" ry="6" fill="#000000" stroke="none" transform="translate(2,3)" opacity="0.25"/><rect x="760" y="640" width="120" height="40" rx="6" ry="6" fill="#10739e" stroke="none" pointer-events="all"/><g fill="#FFFFFF" font-family="Helvetica" font-weight="bold" text-anchor="middle" font-size="14px"><text x="819.5" y="665.5">ui-spi</text></g></a><path d="M 820 600 L 820 610 Q 820 620 820 623.82 L 820 627.65" fill="none" stroke="#23445d" stroke-width="3" stroke-miterlimit="10" pointer-events="stroke"/><path d="M 820 636.65 L 815.5 627.65 L 824.5 627.65 Z" fill="#23445d" stroke="#23445d" stroke-width="3" stroke-miterlimit="10" pointer-events="all"/><a xlink:href="https://github.com/m-m-m/ui-fx"><rect x="520" y="720" width="120" height="40" rx="6" ry="6" fill="#000000" stroke="none" transform="translate(2,3)" opacity="0.25"/><rect x="520" y="720" width="120" height="40" rx="6" ry="6" fill="#10739e" stroke="none" pointer-events="all"/><g fill="#FFFFFF" font-family="Helvetica" font-weight="bold" text-anchor="middle" font-size="14px"><text x="579.5" y="745.5">ui-fx</text></g></a><a xlink:href="https://github.com/m-m-m/ui-tvm"><rect x="1000" y="720" width="120" height="40" rx="6" ry="6" fill="#000000" stroke="none" transform="translate(2,3)" opacity="0.25"/><rect x="1000" y="720" width="120" height="40" rx="6" ry="6" fill="#10739e" stroke="none" pointer-events="all"/><g fill="#FFFFFF" font-family="Helvetica" font-weight="bold" text-anchor="middle" font-size="14px"><text x="1059.5" y="745.5">ui-tvm</text></g></a><a xlink:href="https://github.com/m-m-m/ui-android"><rect x="680" y="720" width="120" height="40" rx="6" ry="6" fill="#000000" stroke="none" transform="translate(2,3)" opacity="0.25"/><rect x="680" y="720" width="120" height="40" rx="6" ry="6" fill="#10739e" stroke="none" pointer-events="all"/><g fill="#FFFFFF" font-family="Helvetica" font-weight="bold" text-anchor="middle" font-size="14px"><text x="739.5" y="745.5">ui-android</text></g></a><a xlink:href="https://github.com/m-m-m/ui-test"><rect x="840" y="720" width="120" height="40" rx="6" ry="6" fill="#000000" stroke="none" transform="translate(2,3)" opacity="0.25"/><rect x="840" y="720" width="120" height="40" rx="6" ry="6" fill="#10739e" stroke="none" pointer-events="all"/><g fill="#FFFFFF" font-family="Helvetica" font-weight="bold" text-anchor="middle" font-size="14px"><text x="899.5" y="745.5">ui-test</text></g></a><path d="M 820 680 L 820 690 Q 820 700 810 700 L 750 700 Q 740 700 740 703.82 L 740 707.65" fill="none" stroke="#23445d" stroke-width="3" stroke-miterlimit="10" pointer-events="stroke"/><path d="M 740 716.65 L 735.5 707.65 L 744.5 707.65 Z" fill="#23445d" stroke="#23445d" stroke-width="3" stroke-miterlimit="10" pointer-events="all"/><path d="M 820 680 L 820 690 Q 820 700 830 700 L 890 700 Q 900 700 900 703.82 L 900 707.65" fill="none" stroke="#23445d" stroke-width="3" stroke-miterlimit="10" pointer-events="stroke"/><path d="M 900 716.65 L 895.5 707.65 L 904.5 707.65 Z" fill="#23445d" stroke="#23445d" stroke-width="3" stroke-miterlimit="10" pointer-events="all"/><path d="M 820 680 L 820 690 Q 820 700 830 700 L 1050 700 Q 1060 700 1060 703.82 L 1060 707.65" fill="none" stroke="#23445d" stroke-width="3" stroke-miterlimit="10" pointer-events="stroke"/><path d="M 1060 716.65 L 1055.5 707.65 L 1064.5 707.65 Z" fill="#23445d" stroke="#23445d" stroke-width="3" stroke-miterlimit="10" pointer-events="all"/><path d="M 820 680 L 820 690 Q 820 700 810 700 L 590 700 Q 580 700 580 703.82 L 580 707.65" fill="none" stroke="#23445d" stroke-width="3" stroke-miterlimit="10" pointer-events="stroke"/><path d="M 580 716.65 L 575.5 707.65 L 584.5 707.65 Z" fill="#23445d" stroke="#23445d" stroke-width="3" stroke-miterlimit="10" pointer-events="all"/><a xlink:href="https://github.com/m-m-m/tvm"><rect x="1000" y="160" width="120" height="40" rx="6" ry="6" fill="#000000" stroke="none" transform="translate(2,3)" opacity="0.25"/><rect x="1000" y="160" width="120" height="40" rx="6" ry="6" fill="#10739e" stroke="none" pointer-events="all"/><g fill="#FFFFFF" font-family="Helvetica" font-weight="bold" text-anchor="middle" font-size="14px"><text x="1059.5" y="185.5">tvm</text></g></a><path d="M 1060 200 L 1060 210 Q 1060 220 1050 220 L 830 220 Q 820 220 820 223.82 L 820 227.65" fill="none" stroke="#23445d" stroke-width="3" stroke-miterlimit="10" stroke-dasharray="9 9" pointer-events="stroke"/><path d="M 820 236.65 L 815.5 227.65 L 824.5 227.65 Z" fill="#23445d" stroke="#23445d" stroke-width="3" stroke-miterlimit="10" pointer-events="all"/><path d="M 1090 200 L 1090 560 Q 1090 570 1090 580 L 1090 707.65" fill="none" stroke="#23445d" stroke-width="3" stroke-miterlimit="10" pointer-events="stroke"/><path d="M 1090 716.65 L 1085.5 707.65 L 1094.5 707.65 Z" fill="#23445d" stroke="#23445d" stroke-width="3" stroke-miterlimit="10" pointer-events="all"/><a xlink:href="https://github.com/m-m-m/dbm"><rect x="360" y="560" width="120" height="40" rx="6" ry="6" fill="#000000" stroke="none" transform="translate(2,3)" opacity="0.25"/><rect x="360" y="560" width="120" height="40" rx="6" ry="6" fill="#10739e" stroke="none" pointer-events="all"/><g fill="#FFFFFF" font-family="Helvetica" font-weight="bold" text-anchor="middle" font-size="14px"><text x="419.5" y="585.5">dbm</text></g></a><path d="M 700 520 L 700 530 Q 700 540 690 540 L 430 540 Q 420 540 420 543.82 L 420 547.65" fill="none" stroke="#23445d" stroke-width="3" stroke-miterlimit="10" pointer-events="stroke"/><path d="M 420 556.65 L 415.5 547.65 L 424.5 547.65 Z" fill="#23445d" stroke="#23445d" stroke-width="3" stroke-miterlimit="10" pointer-events="all"/><a xlink:href="https://github.com/m-m-m/ui-demo"><rect x="400" y="800" width="120" height="40" rx="6" ry="6" fill="#000000" stroke="#000000" transform="translate(2,3)" opacity="0.25"/><rect x="400" y="800" width="120" height="40" rx="6" ry="6" fill="#d5e8d4" stroke="#82b366" pointer-events="all"/><g fill="#000000" font-family="Helvetica" font-weight="bold" text-anchor="middle" font-size="14px"><text x="459.5" y="825.5">ui-demo</text></g></a><path d="M 580 760 L 580 770 Q 580 780 570 780 L 470 780 Q 460 780 460 783.82 L 460 787.65" fill="none" stroke="#23445d" stroke-width="3" stroke-miterlimit="10" pointer-events="stroke"/><path d="M 460 796.65 L 455.5 787.65 L 464.5 787.65 Z" fill="#23445d" stroke="#23445d" stroke-width="3" stroke-miterlimit="10" pointer-events="all"/><path d="M 1060 760 L 1060 770 Q 1060 780 1050 780 L 470 780 Q 460 780 460 783.82 L 460 787.65" fill="none" stroke="#23445d" stroke-width="3" stroke-miterlimit="10" pointer-events="stroke"/><path d="M 460 796.65 L 455.5 787.65 L 464.5 787.65 Z" fill="#23445d" stroke="#23445d" stroke-width="3" stroke-miterlimit="10" pointer-events="all"/><path d="M 580 600 L 580 630 Q 580 640 570 640 L 470 640 Q 460 640 460 650 L 460 787.65" fill="none" stroke="#23445d" stroke-width="3" stroke-miterlimit="10" pointer-events="stroke"/><path d="M 460 796.65 L 455.5 787.65 L 464.5 787.65 Z" fill="#23445d" stroke="#23445d" stroke-width="3" stroke-miterlimit="10" pointer-events="all"/><path d="M 420 600 L 420 630 Q 420 640 430 640 L 450 640 Q 460 640 460 650 L 460 787.65" fill="none" stroke="#23445d" stroke-width="3" stroke-miterlimit="10" pointer-events="stroke"/><path d="M 460 796.65 L 455.5 787.65 L 464.5 787.65 Z" fill="#23445d" stroke="#23445d" stroke-width="3" stroke-miterlimit="10" pointer-events="all"/><a xlink:href="https://github.com/m-m-m/model"><rect x="160" y="800" width="120" height="40" rx="6" ry="6" fill="#000000" stroke="#000000" transform="translate(2,3)" opacity="0.25"/><rect x="160" y="800" width="120" height="40" rx="6" ry="6" fill="#d5e8d4" stroke="#82b366" pointer-events="all"/><g fill="#000000" font-family="Helvetica" font-weight="bold" text-anchor="middle" font-size="14px"><text x="219.5" y="825.5">model</text></g></a><path d="M 640 500 L 230 500 Q 220 500 220 510 L 220 787.65" fill="none" stroke="#23445d" stroke-width="3" stroke-miterlimit="10" pointer-events="stroke"/><path d="M 220 796.65 L 215.5 787.65 L 224.5 787.65 Z" fill="#23445d" stroke="#23445d" stroke-width="3" stroke-miterlimit="10" pointer-events="all"/><a xlink:href="https://github.com/m-m-m/binary"><rect x="0" y="0" width="120" height="40" rx="6" ry="6" fill="#000000" stroke="none" transform="translate(2,3)" opacity="0.25"/><rect x="0" y="0" width="120" height="40" rx="6" ry="6" fill="#10739e" stroke="none" pointer-events="all"/><g fill="#FFFFFF" font-family="Helvetica" font-weight="bold" text-anchor="middle" font-size="14px"><text x="59.5" y="25.5">binary</text></g></a><a xlink:href="https://github.com/m-m-m/crypto"><rect x="0" y="80" width="120" height="40" rx="6" ry="6" fill="#000000" stroke="none" transform="translate(2,3)" opacity="0.25"/><rect x="0" y="80" width="120" height="40" rx="6" ry="6" fill="#10739e" stroke="none" pointer-events="all"/><g fill="#FFFFFF" font-family="Helvetica" font-weight="bold" text-anchor="middle" font-size="14px"><text x="59.5" y="105.5">crypto</text></g></a><path d="M 60 40 L 60 50 Q 60 60 60 63.82 L 60 67.65" fill="none" stroke="#23445d" stroke-width="3" stroke-miterlimit="10" pointer-events="stroke"/><path d="M 60 76.65 L 55.5 67.65 L 64.5 67.65 Z" fill="#23445d" stroke="#23445d" stroke-width="3" stroke-miterlimit="10" pointer-events="all"/><a xlink:href="https://github.com/m-m-m/code"><rect x="840" y="0" width="120" height="40" rx="6" ry="6" fill="#000000" stroke="none" transform="translate(2,3)" opacity="0.25"/><rect x="840" y="0" width="120" height="40" rx="6" ry="6" fill="#10739e" stroke="none" pointer-events="all"/><g fill="#FFFFFF" font-family="Helvetica" font-weight="bold" text-anchor="middle" font-size="14px"><text x="899.5" y="25.5">code</text></g></a></g></svg>